Exact Audio Copy V0.99 prebeta 1 from 25. May 2007

EAC 抓取日志文件从1. 十一月 2010, 22:37

郭峰 / 20世纪中华歌坛名人百集珍藏版

使用驱动器  ：BENQ    DVD-ROM 16X   Adapter: 0  ID: 1

读取模式     : 保护
使用精确流   : 是
废除音频缓冲 : 是
使用 C2 指针 : 否

读取偏移校正                   : 738
读取 Lead-In 和 Lead-Out       : 否
用静音填充抓取中丢失偏移的采样 : 是
去除首尾静音块                 : 否
已用接口                       : 已安装外部 ASPI 接口

所用输出格式 : 内部 WAV 函数
样本格式     : 44.100 Hz;16 Bit;立体声


被抓轨 CD 的 TOC

     音轨 |   开始   |   长度   | 起始扇区 | 结尾扇区 
    --------------------------------------------------
       1  |  0:00.00 |  4:12.57 |       0  |   18956  
       2  |  4:12.57 |  5:53.08 |   18957  |   45439  
       3  | 10:05.65 |  4:14.65 |   45440  |   64554  
       4  | 14:20.55 |  4:15.70 |   64555  |   83749  
       5  | 18:36.50 |  4:50.62 |   83750  |  105561  
       6  | 23:27.37 |  4:15.08 |  105562  |  124694  
       7  | 27:42.45 |  4:28.15 |  124695  |  144809  
       8  | 32:10.60 |  4:08.42 |  144810  |  163451  
       9  | 36:19.27 |  4:15.45 |  163452  |  182621  
      10  | 40:34.72 |  3:34.53 |  182622  |  198724  
      11  | 44:09.50 |  5:00.60 |  198725  |  221284  
      12  | 49:10.35 |  3:30.52 |  221285  |  237086  
      13  | 52:41.12 |  6:12.48 |  237087  |  265034  


范围状态及错误

已选择范围

     文件名 E:\文件夹\20世纪中华歌坛名人百集珍藏版-郭峰[lwg188原创]\郭峰 - 20世纪中华歌坛名人百集珍藏版.wav

     峰值电平 99.9 %
     范围质量 100.0 %
     复制 CRC DDFE384B
     复制成功

没有错误发生

状态报告结尾
